<svg width="62" height="62" xmlns="http://www.w3.org/2000/svg" xmlns:xlink="http://www.w3.org/1999/xlink"><defs><linearGradient x1="-53.886%" y1="53.812%" x2="64.283%" y2="53.812%" id="a"><stop stop-color="#2883D2" offset="0%"/><stop stop-color="#46B6A6" offset="100%"/></linearGradient><linearGradient x1="5.199%" y1="-5.273%" x2="5.199%" y2="112.896%" id="b"><stop stop-color="#2883D2" offset="0%"/><stop stop-color="#46B6A6" offset="100%"/></linearGradient><circle id="c" cx="21" cy="21" r="21"/></defs><g fill="none" fill-rule="evenodd"><circle fill-opacity=".3" fill="url(#a)" cx="31" cy="31" r="31"/><circle fill-opacity=".6" fill="url(#b)" cx="31" cy="31" r="26"/><g transform="translate(10 10)"><mask id="d" fill="#fff"><use xlink:href="#c"/></mask><use fill="url(#b)" xlink:href="#c"/><path d="M41.309 28.312H27.5a.614.614 0 0 0-.586.436l-.584 1.903-1.301-9.363a.616.616 0 0 0-.579-.532.616.616 0 0 0-.625.475l-1.745 7.393-1.022-4.471a.612.612 0 0 0-1.188-.026l-1.835 6.671-.98-11.548a.612.612 0 1 0-1.188-.156l-3.303 9.286h-32.583a.616.616 0 0 0-.614.62c0 .34.275.618.614.618H12.996c.26 0 .49-.164.577-.41l2.5-7.03 1.032 12.151a.616.616 0 0 0 .554.563c.33.003.573-.18.647-.45l2.1-7.637 1.068 4.67c.064.28.31.479.595.48a.615.615 0 0 0 .599-.476l1.598-6.773 1.232 8.859c.04.287.272.507.558.53a.614.614 0 0 0 .635-.433l1.262-4.113h33.466a.616.616 0 0 0 .614-.618.615.615 0 0 0-.613-.619H41.309z" fill="#FFF" mask="url(#d)"/></g><g fill="#FFF"><path d="M47.782 28.772a.745.745 0 0 0 0-1.053l-15.35-12.536a.625.625 0 0 0-.884 0l-15.33 12.536a.744.744 0 0 0 1.052 1.053l14.07-9.86a.918.918 0 0 1 1.3 0l14.09 9.87c.29.29.761.29 1.052 0v-.01z"/><path d="M25.358 17.435c.5 0 .906.489.906 1.092v2.56h-1.811v-2.56c0-.603.405-1.092.905-1.092z"/></g></g></svg>