<svg width="57" height="51" viewBox="0 0 57 51" xmlns="http://www.w3.org/2000/svg"><title>logo</title><desc>Created with Sketch.</desc><defs><linearGradient x1="-61.686%" y1="-51.701%" y2="84.077%" id="b"><stop stop-color="#2883D2" offset="0%"/><stop stop-color="#46B6A6" offset="100%"/></linearGradient><linearGradient x1="-20.475%" y1="-28.949%" x2="129.92%" y2="104.283%" id="a"><stop stop-color="#2883D2" offset="0%"/><stop stop-color="#46B6A6" offset="100%"/></linearGradient></defs><g fill="none"><g transform="translate(21 16)" fill="url(#a)"><path d="M14.375 5.516h-.625c-.689 0-1.25.55-1.25 1.226v2.452h-.486c-.343-.373-.835-.613-1.389-.613h-2.5v-1.226h1.875c1.036 0 1.875-.823 1.875-1.839v-1.226c0-2.369-1.959-4.29-4.375-4.29s-4.375 1.921-4.375 4.29v1.226c0 1.016.839 1.839 1.875 1.839h1.875v1.226h-2.5c-.554 0-1.046.24-1.389.613h-.486v-2.452c0-.676-.561-1.226-1.25-1.226h-.625c-.346 0-.625.274-.625.613 0 .339.279.613.625.613h.625v2.452c0 .676.561 1.226 1.25 1.226 0 1.016.839 1.839 1.875 1.839h2.5v.847l-3.404 1.67c-.309.151-.434.52-.279.823.109.215.33.338.559.338.094 0 .189-.021.279-.064l2.846-1.396v.847c0 .339.28.613.625.613s.625-.274.625-.613v-.847l2.846 1.395c.089.044.185.065.279.065.229 0 .45-.124.56-.339.154-.303.029-.671-.279-.823l-3.405-1.669v-.847h2.5c1.036 0 1.875-.823 1.875-1.839.689 0 1.25-.55 1.25-1.226v-2.452h.625c.346 0 .625-.274.625-.613 0-.339-.279-.613-.625-.613z" id="Shape"/><ellipse id="Oval" cx="7.5" cy="17.774" rx="1.25" ry="1.226"/><ellipse id="Oval" cx="3.75" cy="17.774" rx="1.25" ry="1.226"/><ellipse cx="11.875" cy="17.774" rx="1.25" ry="1.226"/></g><path d="M41.077 2.27c1.873 0 3.635.356 5.285 1.068 1.65.712 3.1 1.691 4.349 2.937 1.249 1.246 2.23 2.692 2.944 4.339.714 1.647 1.07 3.404 1.07 5.274 0 .979-.089 1.914-.268 2.804-.178.89-.446 1.78-.803 2.67-.357.801-.803 1.558-1.338 2.27s-1.115 1.38-1.739 2.003l-22.077 22.162-22.479-22.563c-.535-.534-1.048-1.157-1.539-1.869-.491-.712-.914-1.469-1.271-2.27-.268-.801-.491-1.647-.669-2.537-.178-.89-.268-1.78-.268-2.67 0-1.869.357-3.627 1.07-5.274.714-1.647 1.695-3.093 2.944-4.339 1.249-1.246 2.698-2.225 4.349-2.937 1.65-.712 3.412-1.068 5.285-1.068 1.427 0 2.788.2 4.081.601 1.293.401 2.475.957 3.546 1.669 1.07.801 2.029 1.713 2.877 2.737.847 1.024 1.539 2.158 2.074 3.404.535-1.246 1.227-2.381 2.074-3.404.847-1.024 1.806-1.936 2.877-2.737 1.07-.712 2.252-1.268 3.546-1.669 1.293-.401 2.654-.601 4.081-.601zm0-2.27c-1.249 0-2.475.134-3.68.401-1.204.267-2.342.668-3.412 1.202-1.07.534-2.074 1.179-3.011 1.936-.937.757-1.762 1.624-2.475 2.603-.714-.979-1.539-1.847-2.475-2.603-.937-.757-1.94-1.402-3.011-1.936-1.07-.534-2.208-.935-3.412-1.202-1.204-.267-2.431-.401-3.68-.401-2.23 0-4.304.423-6.222 1.268-1.918.846-3.59 1.98-5.018 3.404-1.516 1.424-2.676 3.093-3.479 5.007-.803 1.914-1.204 3.983-1.204 6.208 0 .979.089 1.98.268 3.004.178 1.024.446 1.98.803 2.87.446.979.937 1.891 1.472 2.737.535.846 1.16 1.624 1.873 2.336l24.085 24.165 23.683-23.764c.803-.712 1.494-1.513 2.074-2.403.58-.89 1.093-1.78 1.539-2.67.357-.979.647-2.003.87-3.071.223-1.068.335-2.136.335-3.204 0-2.225-.401-4.295-1.204-6.208-.803-1.914-1.962-3.582-3.479-5.007-1.427-1.424-3.1-2.559-5.018-3.404-1.918-.846-3.992-1.268-6.222-1.268z" fill="url(#b)"/></g></svg>