<svg width="57" height="51" xmlns="http://www.w3.org/2000/svg"><defs><linearGradient x1="5.199%" y1="-5.273%" y2="84.077%" id="a"><stop stop-color="#2883D2" offset="0%"/><stop stop-color="#46B6A6" offset="100%"/></linearGradient><linearGradient x1="-148.539%" y1="50%" x2="0%" y2="207.255%" id="b"><stop stop-color="#2883D2" offset="0%"/><stop stop-color="#46B6A6" offset="100%"/></linearGradient></defs><g fill="none" fill-rule="evenodd"><path d="M41.077 2.27c1.874 0 3.635.356 5.286 1.068a13.848 13.848 0 0 1 7.292 7.276c.714 1.646 1.07 3.404 1.07 5.273 0 .98-.089 1.914-.267 2.804-.179.89-.446 1.78-.803 2.67a11.671 11.671 0 0 1-1.338 2.27 18.68 18.68 0 0 1-1.74 2.003L28.5 47.796 6.021 25.233a13.252 13.252 0 0 1-1.539-1.87 14.107 14.107 0 0 1-1.27-2.269 21.07 21.07 0 0 1-.67-2.536c-.178-.89-.267-1.78-.267-2.67 0-1.87.356-3.628 1.07-5.274a13.848 13.848 0 0 1 7.292-7.276c1.65-.712 3.412-1.068 5.286-1.068 1.427 0 2.787.2 4.08.6 1.294.4 2.476.957 3.546 1.67 1.07.8 2.03 1.713 2.877 2.736a13.924 13.924 0 0 1 2.074 3.405 13.924 13.924 0 0 1 2.074-3.405A16.747 16.747 0 0 1 33.45 4.54a13.653 13.653 0 0 1 3.545-1.669c1.294-.4 2.654-.6 4.081-.6zm0-2.27c-1.248 0-2.475.134-3.68.4a14.776 14.776 0 0 0-3.411 1.202 16.503 16.503 0 0 0-3.01 1.936A13.718 13.718 0 0 0 28.5 6.141a13.718 13.718 0 0 0-2.475-2.603 16.503 16.503 0 0 0-3.01-1.936A14.776 14.776 0 0 0 19.601.401C18.398.134 17.172 0 15.922 0c-2.23 0-4.303.423-6.221 1.268-1.918.846-3.59 1.98-5.018 3.405a14.48 14.48 0 0 0-3.479 5.006C.401 11.593 0 13.662 0 15.887c0 .98.09 1.98.268 3.004.178 1.024.446 1.98.802 2.87.446.98.937 1.892 1.472 2.738.535.845 1.16 1.624 1.873 2.336L28.5 51l23.683-23.764a11.833 11.833 0 0 0 2.074-2.404c.58-.89 1.093-1.78 1.539-2.67.357-.979.646-2.002.87-3.07.222-1.068.334-2.137.334-3.205 0-2.225-.401-4.294-1.204-6.208a14.48 14.48 0 0 0-3.48-5.006c-1.426-1.424-3.099-2.56-5.017-3.405C45.381.423 43.308 0 41.077 0z" fill="url(#a)"/><g transform="translate(20 12)" fill="url(#b)"><path d="M20.743 3.536L17.477.257a.874.874 0 0 0-1.238 0 .874.874 0 0 0 0 1.239l1.015 1.02-.853.853 1.235 1.238.853-.853 1.015 1.016a.888.888 0 0 0 1.239 0 .87.87 0 0 0 0-1.234zM13.277 2.709a.874.874 0 0 0-1.238 0 .874.874 0 0 0 0 1.238l.471.472-4.38 4.38 4.067 4.075 4.38-4.38.472.472c.158.201.771.467 1.238 0a.874.874 0 0 0 0-1.239l-5.01-5.018zM3.969 12.96a2.889 2.889 0 0 0-.523 3.36L.257 19.504a.874.874 0 0 0 0 1.239c.172.171.677.48 1.239 0l3.184-3.184c.403.21 1.929.818 3.356-.519l2.927-2.927-4.067-4.076-2.927 2.923z"/></g></g></svg>