<svg width="57" height="51" viewBox="0 0 57 51" xmlns="http://www.w3.org/2000/svg"><title>Group 9</title><desc>Created with Sketch.</desc><defs><linearGradient x1="-61.686%" y1="-51.701%" y2="84.077%" id="a"><stop stop-color="#2883D2" offset="0%"/><stop stop-color="#46B6A6" offset="100%"/></linearGradient><linearGradient x1="5.199%" y1="-5.273%" y2="84.077%" id="b"><stop stop-color="#2883D2" offset="0%"/><stop stop-color="#46B6A6" offset="100%"/></linearGradient></defs><g fill="none"><path d="M41.077 2.27c1.873 0 3.635.356 5.285 1.068 1.65.712 3.1 1.691 4.349 2.937 1.249 1.246 2.23 2.692 2.944 4.339.714 1.647 1.07 3.404 1.07 5.274 0 .979-.089 1.914-.268 2.804-.178.89-.446 1.78-.803 2.67-.357.801-.803 1.558-1.338 2.27s-1.115 1.38-1.739 2.003l-22.077 22.162-22.479-22.563c-.535-.534-1.048-1.157-1.539-1.869-.491-.712-.914-1.469-1.271-2.27-.268-.801-.491-1.647-.669-2.537-.178-.89-.268-1.78-.268-2.67 0-1.869.357-3.627 1.07-5.274.714-1.647 1.695-3.093 2.944-4.339 1.249-1.246 2.698-2.225 4.349-2.937 1.65-.712 3.412-1.068 5.285-1.068 1.427 0 2.788.2 4.081.601 1.293.401 2.475.957 3.546 1.669 1.07.801 2.029 1.713 2.877 2.737.847 1.024 1.539 2.158 2.074 3.404.535-1.246 1.227-2.381 2.074-3.404.847-1.024 1.806-1.936 2.877-2.737 1.07-.712 2.252-1.268 3.546-1.669 1.293-.401 2.654-.601 4.081-.601zm0-2.27c-1.249 0-2.475.134-3.68.401-1.204.267-2.342.668-3.412 1.202-1.07.534-2.074 1.179-3.011 1.936-.937.757-1.762 1.624-2.475 2.603-.714-.979-1.539-1.847-2.475-2.603-.937-.757-1.94-1.402-3.011-1.936-1.07-.534-2.208-.935-3.412-1.202-1.204-.267-2.431-.401-3.68-.401-2.23 0-4.304.423-6.222 1.268-1.918.846-3.59 1.98-5.018 3.404-1.516 1.424-2.676 3.093-3.479 5.007-.803 1.914-1.204 3.983-1.204 6.208 0 .979.089 1.98.268 3.004.178 1.024.446 1.98.803 2.87.446.979.937 1.891 1.472 2.737.535.846 1.16 1.624 1.873 2.336l24.085 24.165 23.683-23.764c.803-.712 1.494-1.513 2.074-2.403.58-.89 1.093-1.78 1.539-2.67.357-.979.647-2.003.87-3.071.223-1.068.335-2.136.335-3.204 0-2.225-.401-4.295-1.204-6.208-.803-1.914-1.962-3.582-3.479-5.007-1.427-1.424-3.1-2.559-5.018-3.404-1.918-.846-3.992-1.268-6.222-1.268z" id="Shape" fill="url(#a)"/><path d="M31.137 24.5c0-.728-.258-1.35-.773-1.865-.515-.515-1.137-.773-1.865-.773s-1.35.258-1.865.773c-.515.515-.773 1.137-.773 1.865s.258 1.35.773 1.865c.515.515 1.137.773 1.865.773s1.35-.258 1.865-.773c.515-.515.773-1.137.773-1.865zm5.275-1.123v2.287c0 .082-.027.161-.082.237-.055.076-.124.12-.206.134l-1.906.288c-.13.371-.264.683-.402.938.24.343.608.817 1.102 1.422.069.082.103.168.103.258 0 .089-.031.168-.093.237-.185.254-.525.625-1.02 1.113s-.817.731-.968.731c-.082 0-.172-.031-.268-.093l-1.422-1.113c-.302.158-.615.288-.938.391-.11.934-.209 1.573-.299 1.916-.048.192-.172.288-.371.288h-2.287c-.096 0-.18-.029-.252-.088-.072-.058-.112-.132-.118-.221l-.288-1.896c-.337-.11-.646-.237-.927-.381l-1.453 1.102c-.069.062-.155.093-.258.093-.096 0-.182-.038-.258-.113-.865-.783-1.432-1.36-1.7-1.731-.048-.069-.072-.148-.072-.237 0-.082.027-.161.082-.237.103-.144.278-.373.525-.685.247-.312.433-.555.556-.726-.185-.343-.326-.683-.422-1.02l-1.885-.278c-.089-.014-.161-.057-.216-.129-.055-.072-.082-.153-.082-.242v-2.287c0-.082.027-.161.082-.237.055-.076.12-.12.196-.134l1.916-.288c.096-.316.23-.632.402-.948-.275-.391-.642-.865-1.102-1.422-.069-.082-.103-.165-.103-.247 0-.069.031-.148.093-.237.179-.247.517-.616 1.015-1.107.498-.491.822-.737.974-.737.089 0 .179.034.268.103l1.422 1.102c.302-.158.615-.288.937-.391.11-.934.209-1.573.299-1.916.048-.192.172-.288.371-.288h2.287c.096 0 .18.029.252.088.072.058.112.132.118.221l.288 1.896c.337.11.646.237.927.381l1.463-1.102c.062-.062.144-.093.247-.093.089 0 .175.034.258.103.886.817 1.453 1.401 1.7 1.751.048.055.072.13.072.227 0 .082-.027.161-.082.237-.103.144-.278.373-.525.685-.247.312-.433.555-.556.726.179.343.319.68.422 1.01l1.885.288c.089.014.161.057.216.129.055.072.082.153.082.242z" fill="url(#b)"/></g></svg>