<svg width="57" height="51" xmlns="http://www.w3.org/2000/svg"><defs><linearGradient x1="5.199%" y1="-5.273%" y2="100%" id="a"><stop stop-color="#2883D2" offset="0%"/><stop stop-color="#46B6A6" offset="100%"/></linearGradient><linearGradient x1="5.199%" y1="-5.273%" y2="84.077%" id="b"><stop stop-color="#2883D2" offset="0%"/><stop stop-color="#46B6A6" offset="100%"/></linearGradient></defs><g fill="none" fill-rule="evenodd"><path d="M35.667 22.333h-4v-3.997c0-.737-.596-1.336-1.334-1.336h-2.666c-.738 0-1.334.599-1.334 1.336v3.997h-4c-.737 0-1.333.599-1.333 1.334v2.666c0 .739.596 1.336 1.333 1.336h4v3.997c0 .74.596 1.334 1.334 1.334h2.666c.738 0 1.334-.595 1.334-1.334V27.67h4c.737 0 1.333-.597 1.333-1.336v-2.666c0-.734-.596-1.334-1.333-1.334z" fill="url(#a)"/><path d="M41.077 2.27c1.874 0 3.635.356 5.286 1.068a13.848 13.848 0 0 1 7.292 7.276c.714 1.646 1.07 3.404 1.07 5.273 0 .98-.089 1.914-.267 2.804-.179.89-.446 1.78-.803 2.67a11.671 11.671 0 0 1-1.338 2.27 18.68 18.68 0 0 1-1.74 2.003L28.5 47.796 6.021 25.233a13.252 13.252 0 0 1-1.539-1.87 14.107 14.107 0 0 1-1.27-2.269 21.07 21.07 0 0 1-.67-2.536c-.178-.89-.267-1.78-.267-2.67 0-1.87.356-3.628 1.07-5.274a13.848 13.848 0 0 1 7.292-7.276c1.65-.712 3.412-1.068 5.286-1.068 1.427 0 2.787.2 4.08.6 1.294.4 2.476.957 3.546 1.67 1.07.8 2.03 1.713 2.877 2.736a13.924 13.924 0 0 1 2.074 3.405 13.924 13.924 0 0 1 2.074-3.405A16.747 16.747 0 0 1 33.45 4.54a13.653 13.653 0 0 1 3.545-1.669c1.294-.4 2.654-.6 4.081-.6zm0-2.27c-1.248 0-2.475.134-3.68.4a14.776 14.776 0 0 0-3.411 1.202 16.503 16.503 0 0 0-3.01 1.936A13.718 13.718 0 0 0 28.5 6.141a13.718 13.718 0 0 0-2.475-2.603 16.503 16.503 0 0 0-3.01-1.936A14.776 14.776 0 0 0 19.601.401C18.398.134 17.172 0 15.922 0c-2.23 0-4.303.423-6.221 1.268-1.918.846-3.59 1.98-5.018 3.405a14.48 14.48 0 0 0-3.479 5.006C.401 11.593 0 13.662 0 15.887c0 .98.09 1.98.268 3.004.178 1.024.446 1.98.802 2.87.446.98.937 1.892 1.472 2.738.535.845 1.16 1.624 1.873 2.336L28.5 51l23.683-23.764a11.833 11.833 0 0 0 2.074-2.404c.58-.89 1.093-1.78 1.539-2.67.357-.979.646-2.002.87-3.07.222-1.068.334-2.137.334-3.205 0-2.225-.401-4.294-1.204-6.208a14.48 14.48 0 0 0-3.48-5.006c-1.426-1.424-3.099-2.56-5.017-3.405C45.381.423 43.308 0 41.077 0z" fill="url(#b)"/></g></svg>