<?xml version="1.0" encoding="UTF-8" standalone="no"?>
<svg width="62px" height="62px" viewBox="0 0 62 62" version="1.1" xmlns="http://www.w3.org/2000/svg" xmlns:xlink="http://www.w3.org/1999/xlink">
    <!-- Generator: Sketch 39 (31667) - http://www.bohemiancoding.com/sketch -->
    <title>Logo_menu</title>
    <desc>Created with Sketch.</desc>
    <defs>
        <linearGradient x1="-53.8859291%" y1="53.8117897%" x2="64.283105%" y2="53.8117899%" id="linearGradient-1">
            <stop stop-color="#2883D2" offset="0%"></stop>
            <stop stop-color="#46B6A6" offset="100%"></stop>
        </linearGradient>
        <linearGradient x1="5.19858801%" y1="-5.27272727%" x2="5.19858785%" y2="112.896307%" id="linearGradient-2">
            <stop stop-color="#2883D2" offset="0%"></stop>
            <stop stop-color="#46B6A6" offset="100%"></stop>
        </linearGradient>
        <circle id="path-3" cx="21" cy="21" r="21"></circle>
    </defs>
    <g id="Maison-médicale-au-forfait" stroke="none" stroke-width="1" fill="none" fill-rule="evenodd">
        <g id="Desktop-HD" transform="translate(-60.000000, -9.000000)">
            <g id="menu">
                <g id="Logo_menu" transform="translate(60.000000, 9.000000)">
                    <circle id="Oval-2" fill-opacity="0.3" fill="url(#linearGradient-1)" cx="31" cy="31" r="31"></circle>
                    <circle id="Oval-2" fill-opacity="0.6" fill="url(#linearGradient-2)" cx="31" cy="31" r="26"></circle>
                    <g id="Shape" transform="translate(10.000000, 10.000000)">
                        <mask id="mask-4" fill="white">
                            <use xlink:href="#path-3"></use>
                        </mask>
                        <use id="Mask" fill="url(#linearGradient-2)" xlink:href="#path-3"></use>
                        <path d="M41.3086059,28.3123742 L27.50093,28.3123742 C27.2321792,28.3123742 26.9945716,28.4889962 26.9151451,28.7478836 L26.3314886,30.6508362 L25.0295203,21.2878349 C24.9885187,20.9934649 24.7455339,20.7699471 24.451129,20.7558218 C24.1570603,20.7431656 23.8939108,20.941258 23.8257988,21.2305429 L22.081215,28.6243725 L21.0594241,24.152999 C20.9963534,23.8772742 20.7558332,23.6797469 20.4754316,23.6735318 C20.1937978,23.6664126 19.9459958,23.8538828 19.8709383,24.1265565 L18.0360613,30.7979647 L17.0561683,19.250071 C17.0316345,18.9603341 16.8103828,18.7268721 16.524492,18.6894684 C16.2383771,18.6517258 15.9655933,18.8203247 15.8682425,19.0940154 L12.5650383,28.3804013 L-0.140635982,28.3804013 L-20.0183476,28.3804013 C-20.3570028,28.3804013 -20.6315789,28.6573691 -20.6315789,28.9990869 C-20.6315789,29.3405788 -20.3571148,29.6175465 -20.0183476,29.6175465 L-0.0591929423,29.6175465 L12.9962271,29.6175465 C13.2552317,29.6175465 13.4860056,29.4538067 13.5733861,29.2079145 L16.0736986,22.1784032 L17.1046756,34.3290492 C17.1299935,34.6273743 17.3633441,34.8644523 17.6588692,34.8922508 C17.9888983,34.8947368 18.2321072,34.7114477 18.3064926,34.4417121 L20.4067596,26.8053804 L21.473809,31.4751853 C21.537776,31.7553171 21.7843456,31.9537485 22.0691162,31.9548785 C22.355119,31.9548785 22.6020248,31.7582552 22.6677841,31.4794794 L24.2660618,24.7056914 L25.4980138,33.5650431 C25.5377831,33.852068 25.7697893,34.0724218 26.0560162,34.0958132 C26.341459,34.1193176 26.6059528,33.9387405 26.6909807,33.6621117 L27.9527316,29.5492933 L41.2389257,29.5492933 L61.4195561,29.5492933 C61.7580992,29.5492933 62.0325634,29.2724386 62.0325634,28.9308338 C62.0326754,28.5892289 61.7583233,28.3123742 61.4196681,28.3123742 L41.3086059,28.3123742 Z" fill="#FFFFFF" mask="url(#mask-4)"></path>
                    </g>
                    <g id="toit" transform="translate(16.000000, 15.000000)" fill="#FFFFFF">
                        <path d="M31.7822163,13.7721796 C32.0725946,13.4813024 32.0725946,13.0100807 31.7822163,12.7192034 L16.4319134,0.182826436 L16.4319134,0.182826436 C16.1877377,-0.0609421453 15.7924043,-0.0609421453 15.5482285,0.182826436 L0.217783696,12.7192034 C-0.0725945654,13.0100807 -0.0725945654,13.4813024 0.217783696,13.7721796 L0.217783696,13.7721796 C0.508523543,14.0626951 0.979522572,14.0626951 1.27026242,13.7721796 L15.3397185,3.91294495 C15.512033,3.7400597 15.7460354,3.64289254 15.990071,3.64289254 C16.2341065,3.64289254 16.4681089,3.7400597 16.6404234,3.91294495 L30.7297376,13.7821134 C31.0204774,14.0726289 31.4914765,14.0726289 31.7822163,13.7821134 L31.7822163,13.7821134 L31.7822163,13.7721796 Z" id="Shape"></path>
                        <path d="M9.35849057,2.43478261 L9.35849057,2.43478261 C9.85867298,2.43478261 10.2641509,2.92366156 10.2641509,3.5267243 L10.2641509,6.08695652 L8.45283019,6.08695652 L8.45283019,3.5267243 C8.45283019,2.92366156 8.85830815,2.43478261 9.35849057,2.43478261 L9.35849057,2.43478261 Z" id="Shape"></path>
                    </g>
                </g>
            </g>
        </g>
    </g>
</svg>