<?xml version="1.0" encoding="UTF-8" standalone="no"?>
<svg width="57px" height="51px" viewBox="0 0 57 51" version="1.1" xmlns="http://www.w3.org/2000/svg" xmlns:xlink="http://www.w3.org/1999/xlink">
    <!-- Generator: Sketch 39 (31667) - http://www.bohemiancoding.com/sketch -->
    <title>logo</title>
    <desc>Created with Sketch.</desc>
    <defs>
        <linearGradient x1="5.19858801%" y1="-5.27272727%" x2="100%" y2="100%" id="linearGradient-1">
            <stop stop-color="#2883D2" offset="0%"></stop>
            <stop stop-color="#46B6A6" offset="100%"></stop>
        </linearGradient>
        <linearGradient x1="5.19858801%" y1="-5.27272727%" x2="100%" y2="84.076951%" id="linearGradient-2">
            <stop stop-color="#2883D2" offset="0%"></stop>
            <stop stop-color="#46B6A6" offset="100%"></stop>
        </linearGradient>
    </defs>
    <g id="Services-et-équipe" stroke="none" stroke-width="1" fill="none" fill-rule="evenodd">
        <g id="Desktop-HD" transform="translate(-363.000000, -545.000000)">
            <g id="médecine-générale" transform="translate(363.000000, 539.000000)">
                <g id="Group-2">
                    <g id="Médecine-générale">
                        <g id="logo" transform="translate(0.000000, 6.000000)">
                            <path d="M35.6665841,22.3332064 L31.6665651,22.3332064 L31.6665651,18.3359299 C31.6665651,17.5986392 31.0705161,17 30.3332254,17 L27.666546,17 C26.9292554,17 26.3332064,17.5986392 26.3332064,18.3359299 L26.3332064,22.3332064 L22.3333397,22.3332064 C21.596049,22.3332064 21,22.9318456 21,23.666546 L21,26.3332254 C21,27.0718874 21.596049,27.6691553 22.3333397,27.6691553 L26.3333587,27.6691553 L26.3333587,31.6664318 C26.3333587,32.4050937 26.9294077,32.9997715 27.6666984,32.9997715 L30.3333778,32.9997715 C31.0706685,32.9997715 31.6667175,32.4050937 31.6667175,31.6664318 L31.6667175,27.6691553 L35.6667365,27.6691553 C36.4040272,27.6691553 37.0000762,27.0718874 37.0000762,26.3332254 L37.0000762,23.666546 C36.9999238,22.9332168 36.4038748,22.3332064 35.6665841,22.3332064 L35.6665841,22.3332064 Z" id="Shape" fill="url(#linearGradient-1)"></path>
                            <path d="M41.0774634,2.26963403 C42.9507039,2.26963403 44.7124401,2.62565496 46.3626766,3.33769683 C48.0129107,4.0497387 49.462442,5.02879513 50.711266,6.27487068 C51.9600946,7.52094167 52.9413141,8.96727757 53.6549291,10.6138738 C54.3685441,12.2604724 54.7253516,14.0183249 54.7253516,15.8874359 C54.7253516,16.8664923 54.6361486,17.8010467 54.4577471,18.6910991 C54.2793411,19.5811514 54.0117366,20.4712037 53.6549291,21.3612561 C53.2981216,22.1623043 52.852111,22.9188482 52.3169021,23.6308901 C51.7816885,24.342932 51.2018769,25.0104718 50.5774649,25.6335073 L28.5,47.7958116 L6.02112721,25.2329843 C5.48591595,24.6989529 4.97300602,24.0759174 4.48239513,23.3638755 C3.99178424,22.6518337 3.56807505,21.8952875 3.21126754,21.0942415 C2.94366305,20.2931933 2.72065894,19.4476453 2.5422529,18.5575906 C2.36385143,17.6675406 2.27464841,16.777486 2.27464841,15.8874359 C2.27464841,14.0183249 2.63145592,12.2604724 3.34507093,10.6138738 C4.05868594,8.96727757 5.03990543,7.52094167 6.28873398,6.27487068 C7.53755796,5.02879513 8.98708931,4.0497387 10.6373234,3.33769683 C12.2875599,2.62565496 14.0492961,2.26963403 15.9225366,2.26963403 C17.3497666,2.26963403 18.7100949,2.46989666 20.0035216,2.87041964 C21.2969482,3.27094262 22.4788728,3.82722618 23.5492953,4.53926805 C24.6197178,5.34031402 25.5786383,6.25261852 26.4260567,7.27617927 C27.2734751,8.29973775 27.9647887,9.43455476 28.5,10.680628 C29.0352113,9.43455476 29.7265249,8.29973775 30.5739433,7.27617927 C31.4213617,6.25261852 32.3802822,5.34031402 33.4507047,4.53926805 C34.5211272,3.82722618 35.7030518,3.27094262 36.9964784,2.87041964 C38.2899051,2.46989666 39.6502334,2.26963403 41.0774634,2.26963403 L41.0774634,2.26963403 Z M41.0774634,0 C39.8286394,0 38.6021122,0.13350842 37.3978863,0.400522982 C36.1936627,0.667539822 35.0563385,1.0680628 33.985916,1.60209421 C32.9154934,2.13612561 31.9119726,2.78141327 30.9753512,3.53795946 C30.0387321,4.29450338 29.213615,5.16230355 28.5,6.14136226 C27.786385,5.16230355 26.9612679,4.29450338 26.0246488,3.53795946 C25.0880274,2.78141327 24.0845066,2.13612561 23.014084,1.60209421 C21.9436615,1.0680628 20.8063373,0.667539822 19.6021137,0.400522982 C18.3978878,0.13350842 17.1713606,0 15.9225366,0 C13.6924886,0 11.6185452,0.422775144 9.70070432,1.26832543 C7.78286341,2.11387572 6.11032795,3.24869046 4.68309793,4.6727742 C3.16666717,6.09685793 2.00704393,7.76570635 1.2042259,9.67931944 C0.401407872,11.5929325 0,13.6623039 0,15.8874359 C0,16.8664923 0.0892030179,17.8678009 0.26760677,18.8913617 C0.446010523,19.9149224 0.713615009,20.871729 1.07042251,21.761779 C1.51643304,22.7408378 2.00704393,23.6531423 2.5422529,24.4986903 C3.07746644,25.3442406 3.70187843,26.1230366 4.41549344,26.8350785 L28.5,51 L52.1830987,27.2356015 C52.9859144,26.5235596 53.6772304,25.7225137 54.257042,24.8324613 C54.8368536,23.942409 55.3497636,23.0523566 55.7957741,22.1623043 C56.1525816,21.1832456 56.4424874,20.1596871 56.6654915,19.0916243 C56.8884979,18.0235615 57,16.9554987 57,15.8874359 C57,13.6623039 56.5985921,11.5929325 55.7957741,9.67931944 C54.9929561,7.76570635 53.8333328,6.09685793 52.3169021,4.6727742 C50.8896721,3.24869046 49.2171366,2.11387572 47.2992957,1.26832543 C45.3814548,0.422775144 43.3075114,0 41.0774634,0 L41.0774634,0 Z" id="Shape" fill="url(#linearGradient-2)"></path>
                        </g>
                    </g>
                </g>
            </g>
        </g>
    </g>
</svg>